<svg width="150" height="53" viewBox="0 0 150 53" fill="none" xmlns="http://www.w3.org/2000/svg">
<rect x="0.5" y="0.5" width="146" height="49" rx="21.5" stroke="url(#paint0_linear_85_324)"/>
<path d="M29.1732 22.7707C29.1732 22.1257 29.4295 21.5071 29.8856 21.051C30.3416 20.5949 30.9602 20.3387 31.6052 20.3387C32.2502 20.3387 32.8688 20.5949 33.3249 21.051C33.781 21.5071 34.0372 22.1257 34.0372 22.7707V25.608H35.2208C35.6512 25.6082 36.0739 25.7226 36.4457 25.9396L39.7937 27.8924C40.2761 28.1739 40.6468 28.6128 40.8438 29.1354C41.0407 29.658 41.0518 30.2324 40.8751 30.7622L39.2295 35.6991C39.0682 36.1835 38.7586 36.6047 38.3445 36.9033C37.9304 37.2019 37.4329 37.3625 36.9224 37.3626H30.3771C30.0046 37.3627 29.637 37.2772 29.3028 37.1128C28.9685 36.9483 28.6766 36.7093 28.4493 36.4141L24.529 31.3167L25.3534 30.0788C25.5349 29.8066 25.7944 29.5957 26.098 29.4737C26.4015 29.3517 26.7348 29.3244 27.0542 29.3954L29.1732 29.8664V22.7707ZM31.6052 21.96C31.3902 21.96 31.184 22.0454 31.032 22.1975C30.88 22.3495 30.7946 22.5557 30.7946 22.7707V31.8882L26.7024 30.9786L26.5224 31.2486L29.7342 35.4251C29.81 35.5235 29.9074 35.6032 30.0188 35.6581C30.1303 35.7129 30.2529 35.7413 30.3771 35.7413H36.9224C37.0924 35.7411 37.2582 35.6875 37.3961 35.588C37.534 35.4885 37.6371 35.3481 37.6909 35.1868L39.3365 30.2499C39.3954 30.0733 39.3918 29.8819 39.3263 29.7077C39.2607 29.5335 39.1373 29.3872 38.9766 29.2933L35.6285 27.3396C35.5048 27.2674 35.3641 27.2294 35.2208 27.2293H32.4159V22.7707C32.4159 22.5557 32.3305 22.3495 32.1785 22.1975C32.0264 22.0454 31.8202 21.96 31.6052 21.96Z" fill="url(#paint1_linear_85_324)"/>
<path d="M24.7957 27.2293C24.0661 27.2293 23.4513 26.9794 22.9514 26.4795C22.4515 25.9796 22.2016 25.3783 22.2016 24.6757C22.2016 23.6489 22.6172 22.7199 23.4484 21.8887C24.2796 21.0575 25.3164 20.5408 26.5589 20.3387C26.5183 19.8523 26.3967 19.4843 26.1941 19.2346C25.9914 18.9849 25.7144 18.8598 25.3631 18.8592C24.9578 18.8592 24.5187 19.0281 24.0458 19.3659C23.5729 19.7037 23.0122 20.2576 22.3637 21.0278C21.3098 22.2843 20.5365 23.1017 20.0436 23.48C19.5507 23.8583 19.0203 24.0475 18.4523 24.0475C17.7632 24.0475 17.1822 23.7908 16.7093 23.2774C16.2364 22.7639 16 22.1424 16 21.4128C16 20.6832 16.1589 19.9369 16.4767 19.1738C16.7944 18.4107 17.3314 17.4952 18.0875 16.4273C18.3442 16.076 18.5333 15.7787 18.6549 15.5355C18.7765 15.2923 18.8373 15.0964 18.8373 14.9478C18.8373 14.8532 18.8206 14.7824 18.7871 14.7354C18.7535 14.6884 18.7027 14.6646 18.6346 14.6641C18.5666 14.6635 18.4855 14.6838 18.3915 14.7249C18.2974 14.7659 18.1961 14.8403 18.0875 14.9478C17.8848 15.137 17.6519 15.2383 17.3887 15.2518C17.1255 15.2653 16.899 15.1775 16.7093 14.9883C16.5067 14.7722 16.4021 14.519 16.3956 14.2287C16.3891 13.9385 16.4937 13.6986 16.7093 13.5089C17.0336 13.2252 17.3579 13.009 17.6821 12.8604C18.0064 12.7117 18.3239 12.6374 18.6346 12.6374C19.2562 12.6374 19.7831 12.8536 20.2154 13.2859C20.6478 13.7183 20.864 14.2587 20.864 14.9073C20.864 15.2991 20.7626 15.7314 20.56 16.2043C20.3573 16.6772 20.0195 17.2447 19.5466 17.9067C19.0332 18.6363 18.6517 19.2781 18.402 19.832C18.1523 20.386 18.0272 20.8724 18.0267 21.2912C18.0267 21.5209 18.0639 21.7001 18.1385 21.8287C18.2131 21.9573 18.3177 22.0214 18.4523 22.0208C18.5868 22.0203 18.7052 21.9833 18.8073 21.9098C18.9095 21.8363 19.0951 21.6571 19.3642 21.3723C19.5399 21.1831 19.7493 20.9502 19.9925 20.6735C20.2357 20.3968 20.5329 20.0555 20.8842 19.6496C21.7354 18.6363 22.5056 17.9135 23.1946 17.4811C23.8837 17.0488 24.6065 16.8326 25.3631 16.8326C26.2684 16.8326 27.0115 17.1366 27.5925 17.7446C28.1734 18.3526 28.5045 19.1835 28.5855 20.2374H29.5786C29.8623 20.2374 30.1023 20.3352 30.2984 20.5308C30.4946 20.7265 30.5924 20.9664 30.5919 21.2507C30.5914 21.535 30.4933 21.7749 30.2976 21.9706C30.102 22.1662 29.8623 22.264 29.5786 22.264H28.5855C28.4774 23.7773 28.0821 24.9833 27.3995 25.882C26.7169 26.7808 25.849 27.2299 24.7957 27.2293ZM24.8362 25.2027C25.2686 25.2027 25.6334 24.956 25.9306 24.4625C26.2278 23.9691 26.4305 23.2836 26.5386 22.4059C25.9171 22.5545 25.3766 22.8485 24.9173 23.2879C24.4579 23.7273 24.2282 24.1629 24.2282 24.5947C24.2282 24.7838 24.2823 24.9325 24.3903 25.0405C24.4984 25.1486 24.6471 25.2027 24.8362 25.2027Z" fill="url(#paint2_linear_85_324)"/>
<path d="M56.92 32.2C55.9467 32.2 55.0333 32.02 54.18 31.66C53.34 31.2867 52.6 30.7733 51.96 30.12C51.3333 29.4667 50.84 28.7067 50.48 27.84C50.12 26.9733 49.94 26.04 49.94 25.04C49.94 24.04 50.12 23.1133 50.48 22.26C50.84 21.3933 51.34 20.6333 51.98 19.98C52.62 19.3267 53.3667 18.82 54.22 18.46C55.0867 18.1 56.0267 17.92 57.04 17.92C58.1467 17.92 59.1667 18.1333 60.1 18.56C61.0333 18.9867 61.8133 19.6 62.44 20.4L61.14 21.7C60.7 21.06 60.12 20.5733 59.4 20.24C58.68 19.8933 57.8933 19.72 57.04 19.72C56.0267 19.72 55.1267 19.9467 54.34 20.4C53.5667 20.8533 52.96 21.48 52.52 22.28C52.0933 23.08 51.88 24 51.88 25.04C51.88 26.0933 52.1 27.02 52.54 27.82C52.98 28.62 53.5733 29.2467 54.32 29.7C55.0667 30.1533 55.92 30.38 56.88 30.38C57.8533 30.38 58.6933 30.1933 59.4 29.82C60.12 29.4467 60.6733 28.9 61.06 28.18C61.4467 27.4467 61.64 26.5533 61.64 25.5L62.78 26.32H56.78V24.6H63.58V24.88C63.58 26.4933 63.2933 27.8467 62.72 28.94C62.16 30.02 61.3733 30.8333 60.36 31.38C59.36 31.9267 58.2133 32.2 56.92 32.2ZM70.1888 32.2C69.2421 32.2 68.3888 31.9867 67.6288 31.56C66.8688 31.12 66.2688 30.5267 65.8288 29.78C65.3888 29.0333 65.1688 28.1867 65.1688 27.24C65.1688 26.3067 65.3821 25.4667 65.8088 24.72C66.2488 23.9733 66.8354 23.3867 67.5688 22.96C68.3154 22.52 69.1488 22.3 70.0688 22.3C70.9488 22.3 71.7221 22.5 72.3888 22.9C73.0688 23.3 73.5954 23.8533 73.9688 24.56C74.3554 25.2667 74.5488 26.0667 74.5488 26.96C74.5488 27.0933 74.5421 27.24 74.5288 27.4C74.5154 27.5467 74.4888 27.72 74.4488 27.92H66.4288V26.42H73.4888L72.8288 27C72.8288 26.36 72.7154 25.82 72.4888 25.38C72.2621 24.9267 71.9421 24.58 71.5288 24.34C71.1154 24.0867 70.6154 23.96 70.0288 23.96C69.4154 23.96 68.8754 24.0933 68.4088 24.36C67.9421 24.6267 67.5821 25 67.3288 25.48C67.0754 25.96 66.9488 26.5267 66.9488 27.18C66.9488 27.8467 67.0821 28.4333 67.3488 28.94C67.6154 29.4333 67.9954 29.82 68.4888 30.1C68.9821 30.3667 69.5488 30.5 70.1888 30.5C70.7221 30.5 71.2088 30.4067 71.6488 30.22C72.1021 30.0333 72.4888 29.7533 72.8088 29.38L73.9688 30.56C73.5154 31.0933 72.9554 31.5 72.2888 31.78C71.6354 32.06 70.9354 32.2 70.1888 32.2ZM79.5314 32.2C78.9981 32.2 78.4914 32.1333 78.0114 32C77.5447 31.8533 77.1114 31.6533 76.7114 31.4C76.3114 31.1333 75.9647 30.82 75.6714 30.46L76.8314 29.3C77.1781 29.7267 77.5781 30.0467 78.0314 30.26C78.4847 30.46 78.9914 30.56 79.5514 30.56C80.1114 30.56 80.5447 30.4667 80.8514 30.28C81.1581 30.08 81.3114 29.8067 81.3114 29.46C81.3114 29.1133 81.1847 28.8467 80.9314 28.66C80.6914 28.46 80.3781 28.3 79.9914 28.18C79.6047 28.0467 79.1914 27.92 78.7514 27.8C78.3247 27.6667 77.9181 27.5 77.5314 27.3C77.1447 27.1 76.8247 26.8267 76.5714 26.48C76.3314 26.1333 76.2114 25.6733 76.2114 25.1C76.2114 24.5267 76.3514 24.0333 76.6314 23.62C76.9114 23.1933 77.2981 22.8667 77.7914 22.64C78.2981 22.4133 78.9047 22.3 79.6114 22.3C80.3581 22.3 81.0181 22.4333 81.5914 22.7C82.1781 22.9533 82.6581 23.34 83.0314 23.86L81.8714 25.02C81.6047 24.6733 81.2714 24.4067 80.8714 24.22C80.4847 24.0333 80.0447 23.94 79.5514 23.94C79.0314 23.94 78.6314 24.0333 78.3514 24.22C78.0847 24.3933 77.9514 24.64 77.9514 24.96C77.9514 25.28 78.0714 25.5267 78.3114 25.7C78.5514 25.8733 78.8647 26.02 79.2514 26.14C79.6514 26.26 80.0647 26.3867 80.4914 26.52C80.9181 26.64 81.3247 26.8067 81.7114 27.02C82.0981 27.2333 82.4114 27.52 82.6514 27.88C82.9047 28.24 83.0314 28.7133 83.0314 29.3C83.0314 30.1933 82.7114 30.9 82.0714 31.42C81.4447 31.94 80.5981 32.2 79.5314 32.2ZM86.5066 32V18.52H88.3066V32H86.5066ZM84.1666 24.14V22.5H90.6466V24.14H84.1666ZM96.2298 32.2C95.4565 32.2 94.7565 32.0267 94.1298 31.68C93.5165 31.32 93.0365 30.8267 92.6898 30.2C92.3432 29.5733 92.1698 28.8467 92.1698 28.02V22.5H93.9698V27.94C93.9698 28.46 94.0565 28.9133 94.2298 29.3C94.4165 29.6733 94.6832 29.96 95.0298 30.16C95.3765 30.36 95.7832 30.46 96.2498 30.46C96.9565 30.46 97.5098 30.24 97.9098 29.8C98.3098 29.3467 98.5098 28.7267 98.5098 27.94V22.5H100.31V28.02C100.31 28.8467 100.137 29.5733 99.7898 30.2C99.4432 30.8267 98.9632 31.32 98.3498 31.68C97.7498 32.0267 97.0432 32.2 96.2298 32.2ZM106.762 32.2C105.896 32.2 105.109 31.9867 104.402 31.56C103.696 31.12 103.136 30.5267 102.722 29.78C102.322 29.0333 102.122 28.1933 102.122 27.26C102.122 26.3267 102.322 25.4867 102.722 24.74C103.136 23.9933 103.689 23.4 104.382 22.96C105.089 22.52 105.882 22.3 106.762 22.3C107.482 22.3 108.122 22.4533 108.682 22.76C109.256 23.0533 109.716 23.4667 110.062 24C110.409 24.52 110.602 25.1267 110.642 25.82V28.68C110.602 29.36 110.409 29.9667 110.062 30.5C109.729 31.0333 109.276 31.4533 108.702 31.76C108.142 32.0533 107.496 32.2 106.762 32.2ZM107.062 30.5C107.956 30.5 108.676 30.2 109.222 29.6C109.769 28.9867 110.042 28.2067 110.042 27.26C110.042 26.6067 109.916 26.04 109.662 25.56C109.422 25.0667 109.076 24.6867 108.622 24.42C108.169 24.14 107.642 24 107.042 24C106.442 24 105.909 24.14 105.442 24.42C104.989 24.7 104.629 25.0867 104.362 25.58C104.109 26.06 103.982 26.6133 103.982 27.24C103.982 27.88 104.109 28.4467 104.362 28.94C104.629 29.42 104.996 29.8 105.462 30.08C105.929 30.36 106.462 30.5 107.062 30.5ZM109.922 32V29.44L110.262 27.12L109.922 24.82V22.5H111.742V32H109.922ZM114.363 32V17.72H116.163V32H114.363ZM118.817 32V22.5H120.617V32H118.817ZM119.717 20.6C119.383 20.6 119.11 20.4933 118.897 20.28C118.683 20.0533 118.577 19.7733 118.577 19.44C118.577 19.12 118.683 18.8533 118.897 18.64C119.11 18.4133 119.383 18.3 119.717 18.3C120.05 18.3 120.323 18.4133 120.537 18.64C120.75 18.8533 120.857 19.12 120.857 19.44C120.857 19.7733 120.75 20.0533 120.537 20.28C120.323 20.4933 120.05 20.6 119.717 20.6ZM126.289 32.2C125.756 32.2 125.249 32.1333 124.769 32C124.303 31.8533 123.869 31.6533 123.469 31.4C123.069 31.1333 122.723 30.82 122.429 30.46L123.589 29.3C123.936 29.7267 124.336 30.0467 124.789 30.26C125.243 30.46 125.749 30.56 126.309 30.56C126.869 30.56 127.303 30.4667 127.609 30.28C127.916 30.08 128.069 29.8067 128.069 29.46C128.069 29.1133 127.943 28.8467 127.689 28.66C127.449 28.46 127.136 28.3 126.749 28.18C126.363 28.0467 125.949 27.92 125.509 27.8C125.083 27.6667 124.676 27.5 124.289 27.3C123.903 27.1 123.583 26.8267 123.329 26.48C123.089 26.1333 122.969 25.6733 122.969 25.1C122.969 24.5267 123.109 24.0333 123.389 23.62C123.669 23.1933 124.056 22.8667 124.549 22.64C125.056 22.4133 125.663 22.3 126.369 22.3C127.116 22.3 127.776 22.4333 128.349 22.7C128.936 22.9533 129.416 23.34 129.789 23.86L128.629 25.02C128.363 24.6733 128.029 24.4067 127.629 24.22C127.243 24.0333 126.803 23.94 126.309 23.94C125.789 23.94 125.389 24.0333 125.109 24.22C124.843 24.3933 124.709 24.64 124.709 24.96C124.709 25.28 124.829 25.5267 125.069 25.7C125.309 25.8733 125.623 26.02 126.009 26.14C126.409 26.26 126.823 26.3867 127.249 26.52C127.676 26.64 128.083 26.8067 128.469 27.02C128.856 27.2333 129.169 27.52 129.409 27.88C129.663 28.24 129.789 28.7133 129.789 29.3C129.789 30.1933 129.469 30.9 128.829 31.42C128.203 31.94 127.356 32.2 126.289 32.2Z" fill="url(#paint3_linear_85_324)"/>
<rect x="3.5" y="3.5" width="146" height="49" rx="21.5" stroke="url(#paint4_linear_85_324)"/>
<defs>
<linearGradient id="paint0_linear_85_324" x1="147" y1="0" x2="116.513" y2="89.6304" gradientUnits="userSpaceOnUse">
<stop stop-color="#EDBAFF"/>
<stop offset="1" stop-color="#A1FFFF"/>
</linearGradient>
<linearGradient id="paint1_linear_85_324" x1="41" y1="12.6374" x2="16.2763" y2="37.6359" gradientUnits="userSpaceOnUse">
<stop stop-color="#EDBAFF"/>
<stop offset="1" stop-color="#A1FFFF"/>
</linearGradient>
<linearGradient id="paint2_linear_85_324" x1="41" y1="12.6374" x2="16.2763" y2="37.6359" gradientUnits="userSpaceOnUse">
<stop stop-color="#EDBAFF"/>
<stop offset="1" stop-color="#A1FFFF"/>
</linearGradient>
<linearGradient id="paint3_linear_85_324" x1="131" y1="10" x2="111.64" y2="62.9171" gradientUnits="userSpaceOnUse">
<stop stop-color="#EDBAFF"/>
<stop offset="1" stop-color="#A1FFFF"/>
</linearGradient>
<linearGradient id="paint4_linear_85_324" x1="150" y1="3" x2="119.513" y2="92.6304" gradientUnits="userSpaceOnUse">
<stop stop-color="#EDBAFF"/>
<stop offset="1" stop-color="#A1FFFF"/>
</linearGradient>
</defs>
</svg>
