<svg width="25" height="26" viewBox="0 0 25 26" fill="none" xmlns="http://www.w3.org/2000/svg">
<path d="M13.1732 10.7707C13.1732 10.1257 13.4295 9.5071 13.8856 9.05101C14.3416 8.59493 14.9602 8.3387 15.6052 8.3387C16.2502 8.3387 16.8688 8.59493 17.3249 9.05101C17.781 9.5071 18.0372 10.1257 18.0372 10.7707V13.608H19.2208C19.6512 13.6082 20.0739 13.7226 20.4457 13.9396L23.7937 15.8924C24.2761 16.1739 24.6468 16.6128 24.8438 17.1354C25.0407 17.658 25.0518 18.2324 24.8751 18.7622L23.2295 23.6991C23.0682 24.1835 22.7586 24.6047 22.3445 24.9033C21.9304 25.2019 21.4329 25.3625 20.9224 25.3626H14.3771C14.0046 25.3627 13.637 25.2772 13.3028 25.1128C12.9685 24.9483 12.6766 24.7093 12.4493 24.4141L8.52897 19.3167L9.35341 18.0788C9.53487 17.8066 9.79441 17.5957 10.098 17.4737C10.4015 17.3517 10.7348 17.3244 11.0542 17.3954L13.1732 17.8664V10.7707ZM15.6052 9.96003C15.3902 9.96003 15.184 10.0454 15.032 10.1975C14.88 10.3495 14.7946 10.5557 14.7946 10.7707V19.8882L10.7024 18.9786L10.5224 19.2486L13.7342 23.4251C13.81 23.5235 13.9074 23.6032 14.0188 23.6581C14.1303 23.7129 14.2529 23.7413 14.3771 23.7413H20.9224C21.0924 23.7411 21.2582 23.6875 21.3961 23.588C21.534 23.4885 21.6371 23.3481 21.6909 23.1868L23.3365 18.2499C23.3954 18.0733 23.3918 17.8819 23.3263 17.7077C23.2607 17.5335 23.1373 17.3872 22.9766 17.2933L19.6285 15.3396C19.5048 15.2674 19.3641 15.2294 19.2208 15.2293H16.4159V10.7707C16.4159 10.5557 16.3305 10.3495 16.1785 10.1975C16.0264 10.0454 15.8202 9.96003 15.6052 9.96003Z" fill="url(#paint0_linear_49_130)"/>
<path d="M8.79568 15.2293C8.06608 15.2293 7.45133 14.9794 6.95142 14.4795C6.45151 13.9796 6.20156 13.3783 6.20156 12.6757C6.20156 11.6489 6.61716 10.7199 7.44836 9.88869C8.27955 9.05749 9.31639 8.54083 10.5589 8.3387C10.5183 7.85231 10.3967 7.48427 10.1941 7.23458C9.9914 6.9849 9.71443 6.85979 9.36314 6.85925C8.95781 6.85925 8.5187 7.02814 8.04581 7.36591C7.57293 7.70369 7.01222 8.25764 6.36369 9.02777C5.30983 10.2843 4.53646 11.1017 4.04358 11.48C3.5507 11.8583 3.02025 12.0475 2.45225 12.0475C1.76319 12.0475 1.18221 11.7908 0.709329 11.2774C0.236443 10.7639 0 10.1424 0 9.41283C0 8.68324 0.15889 7.93689 0.476669 7.17378C0.794448 6.41068 1.33138 5.49517 2.08745 4.42726C2.34416 4.07598 2.53332 3.77873 2.65492 3.53554C2.77652 3.29234 2.83731 3.09643 2.83731 2.94781C2.83731 2.85323 2.82056 2.78243 2.78705 2.73541C2.75355 2.68839 2.70274 2.66461 2.63465 2.66407C2.56655 2.66353 2.48549 2.6838 2.39145 2.72487C2.29741 2.76595 2.19608 2.84026 2.08745 2.94781C1.88479 3.13696 1.65186 3.23829 1.38866 3.2518C1.12547 3.26531 0.899023 3.17749 0.709329 2.98834C0.506663 2.77216 0.402088 2.51897 0.395603 2.22875C0.389117 1.93853 0.493693 1.69858 0.709329 1.50888C1.03359 1.22515 1.35786 1.00897 1.68212 0.860353C2.00639 0.711731 2.3239 0.637421 2.63465 0.637421C3.25616 0.637421 3.78309 0.853597 4.21544 1.28595C4.64779 1.7183 4.86397 2.25874 4.86397 2.90727C4.86397 3.29909 4.76264 3.73145 4.55997 4.20433C4.3573 4.67722 4.01953 5.24468 3.54664 5.90672C3.03322 6.63632 2.65167 7.27809 2.40199 7.83204C2.15231 8.38599 2.02719 8.87239 2.02665 9.29123C2.02665 9.52092 2.06394 9.70008 2.13852 9.8287C2.21311 9.95733 2.31768 10.0214 2.45225 10.0208C2.58682 10.0203 2.70518 9.98327 2.80732 9.90977C2.90946 9.83627 3.09511 9.65711 3.36424 9.3723C3.53989 9.18314 3.74931 8.95021 3.99251 8.67351C4.23571 8.3968 4.53295 8.05551 4.88423 7.64964C5.73543 6.63632 6.50556 5.91348 7.19462 5.48112C7.88368 5.04877 8.60652 4.83259 9.36314 4.83259C10.2684 4.83259 11.0115 5.13659 11.5925 5.74459C12.1734 6.35258 12.5045 7.18351 12.5855 8.23737H13.5786C13.8623 8.23737 14.1023 8.33519 14.2984 8.53083C14.4946 8.72647 14.5924 8.96643 14.5919 9.2507C14.5914 9.53497 14.4933 9.77493 14.2976 9.97057C14.102 10.1662 13.8623 10.264 13.5786 10.264H12.5855C12.4774 11.7773 12.0821 12.9833 11.3995 13.882C10.7169 14.7808 9.849 15.2299 8.79568 15.2293ZM8.83621 13.2027C9.26856 13.2027 9.63336 12.956 9.9306 12.4625C10.2278 11.9691 10.4305 11.2836 10.5386 10.4059C9.91709 10.5545 9.37665 10.8485 8.91728 11.2879C8.4579 11.7273 8.22821 12.1629 8.22821 12.5947C8.22821 12.7838 8.28226 12.9325 8.39034 13.0405C8.49843 13.1486 8.64705 13.2027 8.83621 13.2027Z" fill="url(#paint1_linear_49_130)"/>
<defs>
<linearGradient id="paint0_linear_49_130" x1="25" y1="0.637421" x2="0.276337" y2="25.6359" gradientUnits="userSpaceOnUse">
<stop stop-color="#EDBAFF"/>
<stop offset="1" stop-color="#A1FFFF"/>
</linearGradient>
<linearGradient id="paint1_linear_49_130" x1="25" y1="0.637421" x2="0.276337" y2="25.6359" gradientUnits="userSpaceOnUse">
<stop stop-color="#EDBAFF"/>
<stop offset="1" stop-color="#A1FFFF"/>
</linearGradient>
</defs>
</svg>
